<svg xmlns="http://www.w3.org/2000/svg" xmlns:xlink="http://www.w3.org/1999/xlink" version="1.1" id="v-337" width="100%" height="100%" viewBox="0 0 600.020263671875 1542.0347900390625"><defs id="v-4"><marker id="v-2-857093843" orient="auto" overflow="visible" markerUnits="userSpaceOnUse"><path id="v-127" stroke="#666" fill="#666" transform="rotate(180)" d="M 4 -4 0 0 4 4 z"/></marker></defs><g id="v-3" class="joint-viewport"><g model-id="c57811eb-56e5-4915-bf47-b0e543bf478b" id="j_48" class="joint-cell joint-type-ast joint-type-ast-node joint-element joint-theme-default" data-type="ast.Node" transform="translate(0,0)"><rect id="v-152" rx="5" ry="5" stroke="none" fill="black" width="120" height="30"/><text id="v-153" font-size="10" xml:space="preserve" y="0.8em" fill="white" font-family="'Helvetica Neue Light','Helvetica Neue','Source Sans Pro',sans-serif" letter-spacing="1px" transform="matrix(1,0,0,1,40.79999923706055,10.800000190734863)"><tspan class="v-line" dy="0">Program</tspan></text><path id="v-154" stroke="#666" d="M 0 0 0 10 M -5 10 5 10" visibility="hidden" pointer-events="none" transform="matrix(1,0,0,1,60,30)"/></g><g model-id="3e09122c-0ee6-403a-b8c9-5d7031ff7155" id="j_49" class="joint-cell joint-type-ast joint-type-ast-node joint-element joint-theme-default" data-type="ast.Node" transform="translate(80,50)"><rect id="v-157" rx="5" ry="5" stroke="none" fill="#232323" width="120" height="30"/><text id="v-158" font-size="10" xml:space="preserve" y="0.8em" fill="white" font-family="'Helvetica Neue Light','Helvetica Neue','Source Sans Pro',sans-serif" letter-spacing="1px" transform="matrix(1,0,0,1,24.5,10.800000190734863)"><tspan class="v-line" dy="0">function Home()</tspan></text><path id="v-159" stroke="#666" d="M 0 0 0 10 M -5 10 5 10" visibility="hidden" pointer-events="none" transform="matrix(1,0,0,1,60,30)"/></g><g model-id="8fba4e6e-366d-4adf-a9b9-62cb0ddc7174" id="j_50" class="joint-cell joint-type-ast joint-type-ast-node joint-element joint-theme-default" data-type="ast.Node" transform="translate(160,100)"><rect id="v-162" rx="5" ry="5" stroke="none" fill="#232323" width="120" height="30"/><text id="v-163" font-size="10" xml:space="preserve" y="0.8em" fill="white" font-family="'Helvetica Neue Light','Helvetica Neue','Source Sans Pro',sans-serif" letter-spacing="1px" transform="matrix(1,0,0,1,24.299999237060547,10.800000190734863)"><tspan class="v-line" dy="0">BlockStatement</tspan></text><path id="v-164" stroke="#666" d="M 0 0 0 10 M -5 10 5 10" visibility="hidden" pointer-events="none" transform="matrix(1,0,0,1,60,30)"/></g><g model-id="c8c5af18-4725-412d-a981-528802572f21" id="j_51" class="joint-cell joint-type-ast joint-type-ast-node joint-element joint-theme-default" data-type="ast.Node" transform="translate(240,150)"><rect id="v-167" rx="5" ry="5" stroke="none" fill="#232323" width="120" height="30"/><text id="v-168" font-size="10" xml:space="preserve" y="0.8em" fill="white" font-family="'Helvetica Neue Light','Helvetica Neue','Source Sans Pro',sans-serif" letter-spacing="1px" transform="matrix(1,0,0,1,17,10.800000190734863)"><tspan class="v-line" dy="0">VariableDeclaration</tspan></text><path id="v-169" stroke="#666" d="M 0 0 0 10 M -5 10 5 10" visibility="hidden" pointer-events="none" transform="matrix(1,0,0,1,60,30)"/></g><g model-id="df51732b-7917-4b2e-8339-2379fe086782" id="j_52" class="joint-cell joint-type-ast joint-type-ast-node joint-element joint-theme-default" data-type="ast.Node" transform="translate(320,200)"><rect id="v-172" rx="5" ry="5" stroke="none" fill="#414141" width="120" height="30"/><text id="v-173" font-size="10" xml:space="preserve" y="0.8em" fill="white" font-family="'Helvetica Neue Light','Helvetica Neue','Source Sans Pro',sans-serif" letter-spacing="1px" transform="matrix(1,0,0,1,19.200000762939453,10.800000190734863)"><tspan class="v-line" dy="0">VariableDeclarator</tspan></text><path id="v-174" stroke="#666" d="M 0 0 0 10 M -5 10 5 10" visibility="hidden" pointer-events="none" transform="matrix(1,0,0,1,60,30)"/></g><g model-id="5795a3b0-7001-4764-b119-1d8eaa0191b8" id="j_53" class="joint-cell joint-type-ast joint-type-ast-node joint-element joint-theme-default" data-type="ast.Node" transform="translate(400,250)"><rect id="v-177" rx="5" ry="5" stroke="none" fill="#ff5246" width="120" height="30"/><text id="v-178" font-size="10" xml:space="preserve" y="0.8em" fill="white" font-family="'Helvetica Neue Light','Helvetica Neue','Source Sans Pro',sans-serif" letter-spacing="1px" transform="matrix(1,0,0,1,44.599998474121094,10.800000190734863)"><tspan class="v-line" dy="0">_props</tspan></text><path id="v-179" stroke="#666" d="M 0 0 0 10 M -5 10 5 10" visibility="hidden" pointer-events="none" transform="matrix(1,0,0,1,60,30)"/></g><g model-id="a3fc9d58-de21-46a2-8518-35c51eb11416" id="j_54" class="joint-cell joint-type-ast joint-type-ast-node joint-element joint-theme-default" data-type="ast.Node" transform="translate(400,300)"><rect id="v-182" rx="5" ry="5" stroke="none" fill="#232323" width="120" height="30"/><text id="v-183" font-size="10" xml:space="preserve" y="0.8em" fill="white" font-family="'Helvetica Neue Light','Helvetica Neue','Source Sans Pro',sans-serif" letter-spacing="1px" transform="matrix(1,0,0,1,16.799999237060547,10.800000190734863)"><tspan class="v-line" dy="0">MemberExpression</tspan></text><path id="v-184" stroke="#666" d="M 0 0 0 10 M -5 10 5 10" visibility="hidden" pointer-events="none" transform="matrix(1,0,0,1,60,30)"/></g><g model-id="c8a10563-0e98-48fd-bfc4-6bf86964bd65" id="j_55" class="joint-cell joint-type-ast joint-type-ast-node joint-element joint-theme-default" data-type="ast.Node" transform="translate(480,350)"><rect id="v-187" rx="5" ry="5" stroke="none" fill="#232323" width="120" height="30"/><text id="v-188" font-size="10" xml:space="preserve" y="0.8em" fill="white" font-family="'Helvetica Neue Light','Helvetica Neue','Source Sans Pro',sans-serif" letter-spacing="1px" transform="matrix(1,0,0,1,26.100000381469727,10.800000190734863)"><tspan class="v-line" dy="0">ThisExpression</tspan></text><path id="v-189" stroke="#666" d="M 0 0 0 10 M -5 10 5 10" visibility="hidden" pointer-events="none" transform="matrix(1,0,0,1,60,30)"/></g><g model-id="fe15c97f-4fcd-4816-9874-734c42d50a11" id="j_56" class="joint-cell joint-type-ast joint-type-ast-node joint-element joint-theme-default" data-type="ast.Node" transform="translate(480,400)"><rect id="v-192" rx="5" ry="5" stroke="none" fill="#ff5246" width="120" height="30"/><text id="v-193" font-size="10" xml:space="preserve" y="0.8em" fill="white" font-family="'Helvetica Neue Light','Helvetica Neue','Source Sans Pro',sans-serif" letter-spacing="1px" transform="matrix(1,0,0,1,47.099998474121094,10.800000190734863)"><tspan class="v-line" dy="0">props</tspan></text><path id="v-194" stroke="#666" d="M 0 0 0 10 M -5 10 5 10" visibility="hidden" pointer-events="none" transform="matrix(1,0,0,1,60,30)"/></g><g model-id="dd07c0e1-4628-4c0e-8074-acc256a4b3a7" id="j_57" class="joint-cell joint-type-ast joint-type-ast-node joint-element joint-theme-default" data-type="ast.Node" transform="translate(320,450)"><rect id="v-197" rx="5" ry="5" stroke="none" fill="#414141" width="120" height="30"/><text id="v-198" font-size="10" xml:space="preserve" y="0.8em" fill="white" font-family="'Helvetica Neue Light','Helvetica Neue','Source Sans Pro',sans-serif" letter-spacing="1px" transform="matrix(1,0,0,1,19.200000762939453,10.800000190734863)"><tspan class="v-line" dy="0">VariableDeclarator</tspan></text><path id="v-199" stroke="#666" d="M 0 0 0 10 M -5 10 5 10" visibility="hidden" pointer-events="none" transform="matrix(1,0,0,1,60,30)"/></g><g model-id="13cbedbf-c360-49e9-b0db-b172ca147de1" id="j_58" class="joint-cell joint-type-ast joint-type-ast-node joint-element joint-theme-default" data-type="ast.Node" transform="translate(400,500)"><rect id="v-202" rx="5" ry="5" stroke="none" fill="#ff5246" width="120" height="30"/><text id="v-203" font-size="10" xml:space="preserve" y="0.8em" fill="white" font-family="'Helvetica Neue Light','Helvetica Neue','Source Sans Pro',sans-serif" letter-spacing="1px" transform="matrix(1,0,0,1,52.79999923706055,10.800000190734863)"><tspan class="v-line" dy="0">foo</tspan></text><path id="v-204" stroke="#666" d="M 0 0 0 10 M -5 10 5 10" visibility="hidden" pointer-events="none" transform="matrix(1,0,0,1,60,30)"/></g><g model-id="1cfcc689-7ca6-4f2d-b7f5-447ebd1143ea" id="j_59" class="joint-cell joint-type-ast joint-type-ast-node joint-element joint-theme-default" data-type="ast.Node" transform="translate(400,550)"><rect id="v-207" rx="5" ry="5" stroke="none" fill="#232323" width="120" height="30"/><text id="v-208" font-size="10" xml:space="preserve" y="0.8em" fill="white" font-family="'Helvetica Neue Light','Helvetica Neue','Source Sans Pro',sans-serif" letter-spacing="1px" transform="matrix(1,0,0,1,16.799999237060547,10.800000190734863)"><tspan class="v-line" dy="0">MemberExpression</tspan></text><path id="v-209" stroke="#666" d="M 0 0 0 10 M -5 10 5 10" visibility="hidden" pointer-events="none" transform="matrix(1,0,0,1,60,30)"/></g><g model-id="9aa20c2e-5ec9-4c3f-9504-be7827913aec" id="j_60" class="joint-cell joint-type-ast joint-type-ast-node joint-element joint-theme-default" data-type="ast.Node" transform="translate(480,600)"><rect id="v-212" rx="5" ry="5" stroke="none" fill="#ff5246" width="120" height="30"/><text id="v-213" font-size="10" xml:space="preserve" y="0.8em" fill="white" font-family="'Helvetica Neue Light','Helvetica Neue','Source Sans Pro',sans-serif" letter-spacing="1px" transform="matrix(1,0,0,1,44.599998474121094,10.800000190734863)"><tspan class="v-line" dy="0">_props</tspan></text><path id="v-214" stroke="#666" d="M 0 0 0 10 M -5 10 5 10" visibility="hidden" pointer-events="none" transform="matrix(1,0,0,1,60,30)"/></g><g model-id="0e6536e0-2257-4723-b631-649a998c4ee4" id="j_61" class="joint-cell joint-type-ast joint-type-ast-node joint-element joint-theme-default" data-type="ast.Node" transform="translate(480,650)"><rect id="v-217" rx="5" ry="5" stroke="none" fill="#ff5246" width="120" height="30"/><text id="v-218" font-size="10" xml:space="preserve" y="0.8em" fill="white" font-family="'Helvetica Neue Light','Helvetica Neue','Source Sans Pro',sans-serif" letter-spacing="1px" transform="matrix(1,0,0,1,52.79999923706055,10.800000190734863)"><tspan class="v-line" dy="0">foo</tspan></text><path id="v-219" stroke="#666" d="M 0 0 0 10 M -5 10 5 10" visibility="hidden" pointer-events="none" transform="matrix(1,0,0,1,60,30)"/></g><g model-id="5bc144e4-66a0-4fb9-89de-5542211447ae" id="j_62" class="joint-cell joint-type-ast joint-type-ast-node joint-element joint-theme-default" data-type="ast.Node" transform="translate(320,700)"><rect id="v-222" rx="5" ry="5" stroke="none" fill="#414141" width="120" height="30"/><text id="v-223" font-size="10" xml:space="preserve" y="0.8em" fill="white" font-family="'Helvetica Neue Light','Helvetica Neue','Source Sans Pro',sans-serif" letter-spacing="1px" transform="matrix(1,0,0,1,19.200000762939453,10.800000190734863)"><tspan class="v-line" dy="0">VariableDeclarator</tspan></text><path id="v-224" stroke="#666" d="M 0 0 0 10 M -5 10 5 10" visibility="hidden" pointer-events="none" transform="matrix(1,0,0,1,60,30)"/></g><g model-id="14446d2b-72c7-4507-8357-551debc106b2" id="j_63" class="joint-cell joint-type-ast joint-type-ast-node joint-element joint-theme-default" data-type="ast.Node" transform="translate(400,750)"><rect id="v-227" rx="5" ry="5" stroke="none" fill="#ff5246" width="120" height="30"/><text id="v-228" font-size="10" xml:space="preserve" y="0.8em" fill="white" font-family="'Helvetica Neue Light','Helvetica Neue','Source Sans Pro',sans-serif" letter-spacing="1px" transform="matrix(1,0,0,1,52.70000076293945,10.800000190734863)"><tspan class="v-line" dy="0">bar</tspan></text><path id="v-229" stroke="#666" d="M 0 0 0 10 M -5 10 5 10" visibility="hidden" pointer-events="none" transform="matrix(1,0,0,1,60,30)"/></g><g model-id="16d3d6eb-21e9-495d-a547-b1d0781e07a0" id="j_64" class="joint-cell joint-type-ast joint-type-ast-node joint-element joint-theme-default" data-type="ast.Node" transform="translate(400,800)"><rect id="v-232" rx="5" ry="5" stroke="none" fill="#232323" width="120" height="30"/><text id="v-233" font-size="10" xml:space="preserve" y="0.8em" fill="white" font-family="'Helvetica Neue Light','Helvetica Neue','Source Sans Pro',sans-serif" letter-spacing="1px" transform="matrix(1,0,0,1,16.799999237060547,10.800000190734863)"><tspan class="v-line" dy="0">MemberExpression</tspan></text><path id="v-234" stroke="#666" d="M 0 0 0 10 M -5 10 5 10" visibility="hidden" pointer-events="none" transform="matrix(1,0,0,1,60,30)"/></g><g model-id="f53e52ac-647d-40a2-9481-2169a518aa24" id="j_65" class="joint-cell joint-type-ast joint-type-ast-node joint-element joint-theme-default" data-type="ast.Node" transform="translate(480,850)"><rect id="v-237" rx="5" ry="5" stroke="none" fill="#ff5246" width="120" height="30"/><text id="v-238" font-size="10" xml:space="preserve" y="0.8em" fill="white" font-family="'Helvetica Neue Light','Helvetica Neue','Source Sans Pro',sans-serif" letter-spacing="1px" transform="matrix(1,0,0,1,44.599998474121094,10.800000190734863)"><tspan class="v-line" dy="0">_props</tspan></text><path id="v-239" stroke="#666" d="M 0 0 0 10 M -5 10 5 10" visibility="hidden" pointer-events="none" transform="matrix(1,0,0,1,60,30)"/></g><g model-id="f5aaa241-c422-4cbf-aaa7-25d8a61da2e1" id="j_66" class="joint-cell joint-type-ast joint-type-ast-node joint-element joint-theme-default" data-type="ast.Node" transform="translate(480,900)"><rect id="v-242" rx="5" ry="5" stroke="none" fill="#ff5246" width="120" height="30"/><text id="v-243" font-size="10" xml:space="preserve" y="0.8em" fill="white" font-family="'Helvetica Neue Light','Helvetica Neue','Source Sans Pro',sans-serif" letter-spacing="1px" transform="matrix(1,0,0,1,52.70000076293945,10.800000190734863)"><tspan class="v-line" dy="0">bar</tspan></text><path id="v-244" stroke="#666" d="M 0 0 0 10 M -5 10 5 10" visibility="hidden" pointer-events="none" transform="matrix(1,0,0,1,60,30)"/></g><g model-id="e3d29b54-e3f0-4040-9a18-0ecc3dcdce45" id="j_67" class="joint-cell joint-type-ast joint-type-ast-node joint-element joint-theme-default" data-type="ast.Node" transform="translate(240,950)"><rect id="v-247" rx="5" ry="5" stroke="none" fill="#232323" width="120" height="30"/><text id="v-248" font-size="10" xml:space="preserve" y="0.8em" fill="white" font-family="'Helvetica Neue Light','Helvetica Neue','Source Sans Pro',sans-serif" letter-spacing="1px" transform="matrix(1,0,0,1,22,10.800000190734863)"><tspan class="v-line" dy="0">ReturnStatement</tspan></text><path id="v-249" stroke="#666" d="M 0 0 0 10 M -5 10 5 10" visibility="hidden" pointer-events="none" transform="matrix(1,0,0,1,60,30)"/></g><g model-id="fbe2ce1e-cb84-467a-b2fe-7ca7ea11dbbd" id="j_68" class="joint-cell joint-type-ast joint-type-ast-node joint-element joint-theme-default" data-type="ast.Node" transform="translate(320,1000)"><rect id="v-252" rx="5" ry="5" stroke="none" fill="#232323" width="120" height="30"/><text id="v-253" font-size="10" xml:space="preserve" y="0.8em" fill="white" font-family="'Helvetica Neue Light','Helvetica Neue','Source Sans Pro',sans-serif" letter-spacing="1px" transform="matrix(1,0,0,1,26.899999618530273,10.800000190734863)"><tspan class="v-line" dy="0">CallExpression</tspan></text><path id="v-254" stroke="#666" d="M 0 0 0 10 M -5 10 5 10" visibility="hidden" pointer-events="none" transform="matrix(1,0,0,1,60,30)"/></g><g model-id="bdae7e2e-818d-4e95-993f-1999ebf2134e" id="j_69" class="joint-cell joint-type-ast joint-type-ast-node joint-element joint-theme-default" data-type="ast.Node" transform="translate(400,1050)"><rect id="v-257" rx="5" ry="5" stroke="none" fill="#232323" width="120" height="30"/><text id="v-258" font-size="10" xml:space="preserve" y="0.8em" fill="white" font-family="'Helvetica Neue Light','Helvetica Neue','Source Sans Pro',sans-serif" letter-spacing="1px" transform="matrix(1,0,0,1,16.799999237060547,10.800000190734863)"><tspan class="v-line" dy="0">MemberExpression</tspan></text><path id="v-259" stroke="#666" d="M 0 0 0 10 M -5 10 5 10" visibility="hidden" pointer-events="none" transform="matrix(1,0,0,1,60,30)"/></g><g model-id="6293e0f2-4a34-49df-98f6-e52d1d4d277e" id="j_70" class="joint-cell joint-type-ast joint-type-ast-node joint-element joint-theme-default" data-type="ast.Node" transform="translate(480,1100)"><rect id="v-262" rx="5" ry="5" stroke="none" fill="#ff5246" width="120" height="30"/><text id="v-263" font-size="10" xml:space="preserve" y="0.8em" fill="white" font-family="'Helvetica Neue Light','Helvetica Neue','Source Sans Pro',sans-serif" letter-spacing="1px" transform="matrix(1,0,0,1,47,10.800000190734863)"><tspan class="v-line" dy="0">React</tspan></text><path id="v-264" stroke="#666" d="M 0 0 0 10 M -5 10 5 10" visibility="hidden" pointer-events="none" transform="matrix(1,0,0,1,60,30)"/></g><g model-id="f7ae3b89-443d-440e-a99e-85efe886eb0f" id="j_71" class="joint-cell joint-type-ast joint-type-ast-node joint-element joint-theme-default" data-type="ast.Node" transform="translate(480,1150)"><rect id="v-267" rx="5" ry="5" stroke="none" fill="#ff5246" width="120" height="30"/><text id="v-268" font-size="10" xml:space="preserve" y="0.8em" fill="white" font-family="'Helvetica Neue Light','Helvetica Neue','Source Sans Pro',sans-serif" letter-spacing="1px" transform="matrix(1,0,0,1,28,10.800000190734863)"><tspan class="v-line" dy="0">createElement</tspan></text><path id="v-269" stroke="#666" d="M 0 0 0 10 M -5 10 5 10" visibility="hidden" pointer-events="none" transform="matrix(1,0,0,1,60,30)"/></g><g model-id="03d4243c-a72d-4567-8f0c-b7e5ccfc1412" id="j_72" class="joint-cell joint-type-ast joint-type-ast-node joint-element joint-theme-default" data-type="ast.Node" transform="translate(400,1200)"><rect id="v-272" rx="5" ry="5" stroke="none" fill="#63c1f1" width="120" height="30"/><text id="v-273" font-size="10" xml:space="preserve" y="0.8em" fill="white" font-family="'Helvetica Neue Light','Helvetica Neue','Source Sans Pro',sans-serif" letter-spacing="1px" transform="matrix(1,0,0,1,36.29999923706055,10.800000190734863)"><tspan class="v-line" dy="0">arguments</tspan></text><path id="v-274" stroke="#666" d="M 0 0 0 10 M -5 10 5 10" visibility="hidden" pointer-events="none" transform="matrix(1,0,0,1,60,30)"/></g><g model-id="519112f4-5000-45e7-ada7-7256458d39d3" id="j_73" class="joint-cell joint-type-ast joint-type-ast-node joint-element joint-theme-default" data-type="ast.Node" transform="translate(480,1250)"><rect id="v-277" rx="5" ry="5" stroke="none" fill="#77c63d" width="120" height="30"/><text id="v-278" font-size="10" xml:space="preserve" y="0.8em" fill="white" font-family="'Helvetica Neue Light','Helvetica Neue','Source Sans Pro',sans-serif" letter-spacing="1px" transform="matrix(1,0,0,1,49.20000076293945,10.800000190734863)"><tspan class="v-line" dy="0">"div"</tspan></text><path id="v-279" stroke="#666" d="M 0 0 0 10 M -5 10 5 10" visibility="hidden" pointer-events="none" transform="matrix(1,0,0,1,60,30)"/></g><g model-id="a0f214f9-61eb-4b44-96ca-3da69e602a0b" id="j_74" class="joint-cell joint-type-ast joint-type-ast-node joint-element joint-theme-default" data-type="ast.Node" transform="translate(480,1300)"><rect id="v-282" rx="5" ry="5" stroke="none" fill="#77c63d" width="120" height="30"/><text id="v-283" font-size="10" xml:space="preserve" y="0.8em" fill="white" font-family="'Helvetica Neue Light','Helvetica Neue','Source Sans Pro',sans-serif" letter-spacing="1px" transform="matrix(1,0,0,1,52.20000076293945,10.800000190734863)"><tspan class="v-line" dy="0">null</tspan></text><path id="v-284" stroke="#666" d="M 0 0 0 10 M -5 10 5 10" visibility="hidden" pointer-events="none" transform="matrix(1,0,0,1,60,30)"/></g><g model-id="e4bb1352-5ad9-4de1-8a6a-ff627f159bed" id="j_75" class="joint-cell joint-type-ast joint-type-ast-node joint-element joint-theme-default" data-type="ast.Node" transform="translate(480,1350)"><rect id="v-287" rx="5" ry="5" stroke="none" fill="#77c63d" width="120" height="30"/><text id="v-288" font-size="10" xml:space="preserve" y="0.8em" fill="white" font-family="'Helvetica Neue Light','Helvetica Neue','Source Sans Pro',sans-serif" letter-spacing="1px" transform="matrix(1,0,0,1,43.79999923706055,10.800000190734863)"><tspan class="v-line" dy="0">"hello "</tspan></text><path id="v-289" stroke="#666" d="M 0 0 0 10 M -5 10 5 10" visibility="hidden" pointer-events="none" transform="matrix(1,0,0,1,60,30)"/></g><g model-id="e5397240-4903-4b0e-b276-0fcacde084a9" id="j_76" class="joint-cell joint-type-ast joint-type-ast-node joint-element joint-theme-default" data-type="ast.Node" transform="translate(480,1400)"><rect id="v-292" rx="5" ry="5" stroke="none" fill="#ff5246" width="120" height="30"/><text id="v-293" font-size="10" xml:space="preserve" y="0.8em" fill="white" font-family="'Helvetica Neue Light','Helvetica Neue','Source Sans Pro',sans-serif" letter-spacing="1px" transform="matrix(1,0,0,1,52.79999923706055,10.800000190734863)"><tspan class="v-line" dy="0">foo</tspan></text><path id="v-294" stroke="#666" d="M 0 0 0 10 M -5 10 5 10" visibility="hidden" pointer-events="none" transform="matrix(1,0,0,1,60,30)"/></g><g model-id="dcb3ff32-ea18-48e9-81f6-8992716aaa3d" id="j_77" class="joint-cell joint-type-ast joint-type-ast-node joint-element joint-theme-default" data-type="ast.Node" transform="translate(480,1450)"><rect id="v-297" rx="5" ry="5" stroke="none" fill="#77c63d" width="120" height="30"/><text id="v-298" font-size="10" xml:space="preserve" y="0.8em" fill="white" font-family="'Helvetica Neue Light','Helvetica Neue','Source Sans Pro',sans-serif" letter-spacing="1px" transform="matrix(1,0,0,1,54.400001525878906,10.800000190734863)"><tspan class="v-line" dy="0">" "</tspan></text><path id="v-299" stroke="#666" d="M 0 0 0 10 M -5 10 5 10" visibility="hidden" pointer-events="none" transform="matrix(1,0,0,1,60,30)"/></g><g model-id="f9a5914e-f514-4229-ae93-eda22899fa2c" id="j_78" class="joint-cell joint-type-ast joint-type-ast-node joint-element joint-theme-default" data-type="ast.Node" transform="translate(480,1500)"><rect id="v-302" rx="5" ry="5" stroke="none" fill="#ff5246" width="120" height="30"/><text id="v-303" font-size="10" xml:space="preserve" y="0.8em" fill="white" font-family="'Helvetica Neue Light','Helvetica Neue','Source Sans Pro',sans-serif" letter-spacing="1px" transform="matrix(1,0,0,1,52.70000076293945,10.800000190734863)"><tspan class="v-line" dy="0">bar</tspan></text><path id="v-304" stroke="#666" d="M 0 0 0 10 M -5 10 5 10" visibility="hidden" pointer-events="none" transform="matrix(1,0,0,1,60,30)"/></g><g model-id="48934108-20e3-4c83-bd2b-e8e0cdc05c1b" id="j_79" class="joint-cell joint-type-ast joint-type-ast-link joint-link joint-theme-default" data-type="ast.Link"><path class="connection" id="v-307" fill="none" stroke="#666" pointer-events="none" marker-end="url(#v-2-857093843)" d="M 460 1230 L 460 1515 L 480 1515"/></g><g model-id="8721792a-1c75-4d7f-9475-85340c2c88c4" id="j_80" class="joint-cell joint-type-ast joint-type-ast-link joint-link joint-theme-default" data-type="ast.Link"><path class="connection" id="v-308" fill="none" stroke="#666" pointer-events="none" marker-end="url(#v-2-857093843)" d="M 460 1230 L 460 1465 L 480 1465"/></g><g model-id="08990f09-6f1e-4d79-9b28-45aca815592f" id="j_81" class="joint-cell joint-type-ast joint-type-ast-link joint-link joint-theme-default" data-type="ast.Link"><path class="connection" id="v-309" fill="none" stroke="#666" pointer-events="none" marker-end="url(#v-2-857093843)" d="M 460 1230 L 460 1415 L 480 1415"/></g><g model-id="da71d42c-cc1d-4604-ab8b-0ae8f851fd4f" id="j_82" class="joint-cell joint-type-ast joint-type-ast-link joint-link joint-theme-default" data-type="ast.Link"><path class="connection" id="v-310" fill="none" stroke="#666" pointer-events="none" marker-end="url(#v-2-857093843)" d="M 460 1230 L 460 1365 L 480 1365"/></g><g model-id="55c9691e-905a-4fa5-aa2a-783c5a66060f" id="j_83" class="joint-cell joint-type-ast joint-type-ast-link joint-link joint-theme-default" data-type="ast.Link"><path class="connection" id="v-311" fill="none" stroke="#666" pointer-events="none" marker-end="url(#v-2-857093843)" d="M 460 1230 L 460 1315 L 480 1315"/></g><g model-id="fdbbd850-5169-46df-a60d-6a4fc6408aa1" id="j_84" class="joint-cell joint-type-ast joint-type-ast-link joint-link joint-theme-default" data-type="ast.Link"><path class="connection" id="v-312" fill="none" stroke="#666" pointer-events="none" marker-end="url(#v-2-857093843)" d="M 460 1230 L 460 1265 L 480 1265"/></g><g model-id="1f109b5a-2ebb-4a1f-a46d-d96c62e1c97b" id="j_85" class="joint-cell joint-type-ast joint-type-ast-link joint-link joint-theme-default" data-type="ast.Link"><path class="connection" id="v-313" fill="none" stroke="#666" pointer-events="none" marker-end="url(#v-2-857093843)" d="M 380 1030 L 380 1215 L 400 1215"/></g><g model-id="387203fb-fd39-4b67-aa6b-cef022f3dc5e" id="j_86" class="joint-cell joint-type-ast joint-type-ast-link joint-link joint-theme-default" data-type="ast.Link"><path class="connection" id="v-314" fill="none" stroke="#666" pointer-events="none" marker-end="url(#v-2-857093843)" d="M 460 1080 L 460 1165 L 480 1165"/></g><g model-id="615ba896-a981-4a56-81f9-a18830013e92" id="j_87" class="joint-cell joint-type-ast joint-type-ast-link joint-link joint-theme-default" data-type="ast.Link"><path class="connection" id="v-315" fill="none" stroke="#666" pointer-events="none" marker-end="url(#v-2-857093843)" d="M 460 1080 L 460 1115 L 480 1115"/></g><g model-id="66c235bd-0d44-44ab-8f50-0506bca98603" id="j_88" class="joint-cell joint-type-ast joint-type-ast-link joint-link joint-theme-default" data-type="ast.Link"><path class="connection" id="v-316" fill="none" stroke="#666" pointer-events="none" marker-end="url(#v-2-857093843)" d="M 380 1030 L 380 1065 L 400 1065"/></g><g model-id="163a3411-e613-496c-9f91-eca28afcc1a3" id="j_89" class="joint-cell joint-type-ast joint-type-ast-link joint-link joint-theme-default" data-type="ast.Link"><path class="connection" id="v-317" fill="none" stroke="#666" pointer-events="none" marker-end="url(#v-2-857093843)" d="M 300 980 L 300 1015 L 320 1015"/></g><g model-id="e461099b-4d34-4496-a0c3-e42e6848bc68" id="j_90" class="joint-cell joint-type-ast joint-type-ast-link joint-link joint-theme-default" data-type="ast.Link"><path class="connection" id="v-318" fill="none" stroke="#666" pointer-events="none" marker-end="url(#v-2-857093843)" d="M 220 130 L 220 965 L 240 965"/></g><g model-id="45e1f26e-2708-4de6-99dc-b19bbed46c0e" id="j_91" class="joint-cell joint-type-ast joint-type-ast-link joint-link joint-theme-default" data-type="ast.Link"><path class="connection" id="v-319" fill="none" stroke="#666" pointer-events="none" marker-end="url(#v-2-857093843)" d="M 460 830 L 460 915 L 480 915"/></g><g model-id="11846d48-716c-43b0-be79-63e0b2d8d4f4" id="j_92" class="joint-cell joint-type-ast joint-type-ast-link joint-link joint-theme-default" data-type="ast.Link"><path class="connection" id="v-320" fill="none" stroke="#666" pointer-events="none" marker-end="url(#v-2-857093843)" d="M 460 830 L 460 865 L 480 865"/></g><g model-id="d559a1e8-3a93-4b44-b3d0-ac99941bf154" id="j_93" class="joint-cell joint-type-ast joint-type-ast-link joint-link joint-theme-default" data-type="ast.Link"><path class="connection" id="v-321" fill="none" stroke="#666" pointer-events="none" marker-end="url(#v-2-857093843)" d="M 380 730 L 380 815 L 400 815"/></g><g model-id="0a2c63a4-f967-495e-8785-c1696b36a3e9" id="j_94" class="joint-cell joint-type-ast joint-type-ast-link joint-link joint-theme-default" data-type="ast.Link"><path class="connection" id="v-322" fill="none" stroke="#666" pointer-events="none" marker-end="url(#v-2-857093843)" d="M 380 730 L 380 765 L 400 765"/></g><g model-id="fd4a0e71-13b1-4ed6-a509-76cc0c9ffab5" id="j_95" class="joint-cell joint-type-ast joint-type-ast-link joint-link joint-theme-default" data-type="ast.Link"><path class="connection" id="v-323" fill="none" stroke="#666" pointer-events="none" marker-end="url(#v-2-857093843)" d="M 300 180 L 300 715 L 320 715"/></g><g model-id="736e9bae-fd8c-4b41-932f-31680fc1b9ff" id="j_96" class="joint-cell joint-type-ast joint-type-ast-link joint-link joint-theme-default" data-type="ast.Link"><path class="connection" id="v-324" fill="none" stroke="#666" pointer-events="none" marker-end="url(#v-2-857093843)" d="M 460 580 L 460 665 L 480 665"/></g><g model-id="d6173616-e4ab-4125-b85a-335e32261d80" id="j_97" class="joint-cell joint-type-ast joint-type-ast-link joint-link joint-theme-default" data-type="ast.Link"><path class="connection" id="v-325" fill="none" stroke="#666" pointer-events="none" marker-end="url(#v-2-857093843)" d="M 460 580 L 460 615 L 480 615"/></g><g model-id="33efca89-afcc-47a6-b304-5cc401434ed7" id="j_98" class="joint-cell joint-type-ast joint-type-ast-link joint-link joint-theme-default" data-type="ast.Link"><path class="connection" id="v-326" fill="none" stroke="#666" pointer-events="none" marker-end="url(#v-2-857093843)" d="M 380 480 L 380 565 L 400 565"/></g><g model-id="40c13beb-af36-45d8-9ee6-1d55fee3e079" id="j_99" class="joint-cell joint-type-ast joint-type-ast-link joint-link joint-theme-default" data-type="ast.Link"><path class="connection" id="v-327" fill="none" stroke="#666" pointer-events="none" marker-end="url(#v-2-857093843)" d="M 380 480 L 380 515 L 400 515"/></g><g model-id="8d4f2a40-e3ca-446f-8734-9304f2d46fb9" id="j_100" class="joint-cell joint-type-ast joint-type-ast-link joint-link joint-theme-default" data-type="ast.Link"><path class="connection" id="v-328" fill="none" stroke="#666" pointer-events="none" marker-end="url(#v-2-857093843)" d="M 300 180 L 300 465 L 320 465"/></g><g model-id="eee59dc9-5e12-41f1-bbc9-683977af7779" id="j_101" class="joint-cell joint-type-ast joint-type-ast-link joint-link joint-theme-default" data-type="ast.Link"><path class="connection" id="v-329" fill="none" stroke="#666" pointer-events="none" marker-end="url(#v-2-857093843)" d="M 460 330 L 460 415 L 480 415"/></g><g model-id="997d7087-9bb9-4c91-bff1-3ca891801802" id="j_102" class="joint-cell joint-type-ast joint-type-ast-link joint-link joint-theme-default" data-type="ast.Link"><path class="connection" id="v-330" fill="none" stroke="#666" pointer-events="none" marker-end="url(#v-2-857093843)" d="M 460 330 L 460 365 L 480 365"/></g><g model-id="e041ffb9-f2de-4fd8-b3ac-71678aa37896" id="j_103" class="joint-cell joint-type-ast joint-type-ast-link joint-link joint-theme-default" data-type="ast.Link"><path class="connection" id="v-331" fill="none" stroke="#666" pointer-events="none" marker-end="url(#v-2-857093843)" d="M 380 230 L 380 315 L 400 315"/></g><g model-id="e1c05181-479c-45b3-9ef0-3bf146a9a118" id="j_104" class="joint-cell joint-type-ast joint-type-ast-link joint-link joint-theme-default" data-type="ast.Link"><path class="connection" id="v-332" fill="none" stroke="#666" pointer-events="none" marker-end="url(#v-2-857093843)" d="M 380 230 L 380 265 L 400 265"/></g><g model-id="ba659b1a-672a-41c6-a04b-36520f251d59" id="j_105" class="joint-cell joint-type-ast joint-type-ast-link joint-link joint-theme-default" data-type="ast.Link"><path class="connection" id="v-333" fill="none" stroke="#666" pointer-events="none" marker-end="url(#v-2-857093843)" d="M 300 180 L 300 215 L 320 215"/></g><g model-id="c96a2c87-b23e-4d1b-b34f-96f4a862f7bc" id="j_106" class="joint-cell joint-type-ast joint-type-ast-link joint-link joint-theme-default" data-type="ast.Link"><path class="connection" id="v-334" fill="none" stroke="#666" pointer-events="none" marker-end="url(#v-2-857093843)" d="M 220 130 L 220 165 L 240 165"/></g><g model-id="708f928b-4928-4220-96dd-46c8be7ff75c" id="j_107" class="joint-cell joint-type-ast joint-type-ast-link joint-link joint-theme-default" data-type="ast.Link"><path class="connection" id="v-335" fill="none" stroke="#666" pointer-events="none" marker-end="url(#v-2-857093843)" d="M 140 80 L 140 115 L 160 115"/></g><g model-id="6ba23e81-b569-42d7-ac71-155a85cb7bc3" id="j_108" class="joint-cell joint-type-ast joint-type-ast-link joint-link joint-theme-default" data-type="ast.Link"><path class="connection" id="v-336" fill="none" stroke="#666" pointer-events="none" marker-end="url(#v-2-857093843)" d="M 60 30 L 60 65 L 80 65"/></g></g><g id="v-5" class="joint-tools-container" transform="matrix(0.2423529475927353,0,0,0.2423529475927353,0,0)"/></svg>